<svg width="100" height="100" viewBox="0 0 100 100" fill="none" xmlns="http://www.w3.org/2000/svg">
<rect width="100" height="100" rx="20" fill="#C3E0CC"/>
<path d="M60.727 20.6775C64.2025 21.6088 66.9961 22.9786 69.1078 24.7869C71.2722 26.6094 72.7251 28.6648 73.4665 30.9531C74.2079 33.2415 74.2679 35.545 73.6467 37.8635C73.0819 39.9713 72.2261 41.6906 71.0794 43.0212C69.9469 44.2991 68.7269 45.2712 67.4196 45.9375C66.1122 46.6038 64.4607 47.2909 62.4649 47.9986C59.9247 48.8429 57.9656 49.7299 56.5876 50.6597C55.2097 51.5895 54.2524 53.0556 53.7159 55.058L52.9958 57.7454L43.5961 55.2268L44.4221 52.1441C45.0575 49.7728 45.9626 47.8692 47.1376 46.4332C48.3793 44.9586 49.6538 43.8881 50.9612 43.2218C52.2826 42.5028 53.9412 41.7894 55.9369 41.0817C58.0521 40.3494 59.6247 39.6412 60.6546 38.9571C61.7372 38.287 62.4691 37.2406 62.8503 35.8178C63.3163 34.0789 63.0707 32.5729 62.1137 31.2999C61.2235 29.9883 59.7515 29.0573 57.6978 28.507C53.9589 27.5052 50.1491 28.3481 46.2683 31.0358L41.0889 24.1414C47.1245 19.9414 53.6706 18.7867 60.727 20.6775ZM46.36 64.1849C48.1505 64.6647 49.5081 65.7062 50.4331 67.3095C51.3722 68.8602 51.6017 70.5313 51.1216 72.3229C50.6557 74.0619 49.6214 75.3943 48.0187 76.3204C46.416 77.2464 44.7194 77.4696 42.929 76.9898C41.1912 76.5242 39.8598 75.4897 38.9349 73.8864C38.0626 72.2972 37.8594 70.6331 38.3254 68.8942C38.8054 67.1026 39.8134 65.763 41.3493 64.8756C42.8994 63.9354 44.5696 63.7052 46.36 64.1849Z" fill="white"/>
<path d="M71.4536 43.3528L71.4537 43.3528L71.4582 43.3476C72.6644 41.9479 73.55 40.1562 74.1296 37.993C74.7759 35.5809 74.7132 33.179 73.9421 30.799C73.1673 28.4076 71.6537 26.2774 69.4314 24.4058C67.249 22.5374 64.3827 21.1394 60.8564 20.1945C53.6566 18.2654 46.9589 19.4475 40.8033 23.731C40.6918 23.8085 40.6167 23.928 40.5952 24.0621C40.5736 24.1961 40.6075 24.3331 40.6891 24.4417L45.8685 31.3362C46.0299 31.5509 46.3321 31.5998 46.553 31.4469C50.3421 28.8227 54.0023 28.0344 57.5684 28.99C59.5461 29.5199 60.8973 30.398 61.7 31.5807C61.7045 31.5873 61.7092 31.5939 61.714 31.6003C62.5658 32.7334 62.7994 34.076 62.3674 35.6884C62.0135 37.0089 61.3488 37.9394 60.3914 38.5319L60.3779 38.5406C59.4008 39.1897 57.8753 39.8816 55.7734 40.6092L55.7698 40.6104C53.7614 41.3227 52.0788 42.0451 50.7281 42.7794C49.3479 43.4842 48.0252 44.6029 46.7551 46.1111L46.7551 46.1111L46.7506 46.1166C45.5187 47.6221 44.5872 49.596 43.9391 52.0147L43.1131 55.0973C43.0416 55.3641 43.1999 55.6382 43.4667 55.7097L52.8664 58.2284C53.1331 58.2998 53.4073 58.1415 53.4788 57.8748L54.1989 55.1874C54.7122 53.2716 55.6122 51.9211 56.8673 51.0741C58.1917 50.1805 60.1027 49.3106 62.6226 48.4731L62.6227 48.4732L62.6321 48.4699C64.6402 47.7577 66.3135 47.0624 67.6466 46.383C69.018 45.684 70.2863 44.67 71.4536 43.3528ZM38.4966 74.127L38.4965 74.127L38.5018 74.1362C39.4909 75.8508 40.9296 76.9717 42.7996 77.4728C44.7179 77.9868 46.5511 77.7458 48.2688 76.7533C49.9826 75.763 51.1033 74.3233 51.6046 72.4523C52.1185 70.5343 51.8727 68.724 50.8635 67.0551C49.8722 65.3393 48.4061 64.2156 46.4894 63.702C44.5724 63.1883 42.7629 63.435 41.0946 64.4453C39.4408 65.4024 38.3545 66.8534 37.8424 68.7648C37.3428 70.6292 37.5628 72.4257 38.4966 74.127Z" stroke="#416D50" stroke-linecap="round" stroke-linejoin="round"/>
<path d="M51 61.5L53.2541 61.9508C54.8003 62.2601 56.3219 61.3196 56.7368 59.7984L57.5 57" stroke="#416D50" stroke-linecap="round" stroke-linejoin="round"/>
<path d="M38 26L37.0911 24.8639C36.4661 24.0826 36.5088 22.9563 37.2739 22.3116C41.4114 18.8249 50.2237 14.3192 60.5 17M35 65.9999C33.8333 68.4999 32.8 74.4999 38 78.4999" stroke="#416D50" stroke-linecap="round" stroke-linejoin="round"/>
</svg>
