<svg width="24" height="24" viewBox="0 0 24 24" fill="none" xmlns="http://www.w3.org/2000/svg">
<g clip-path="url(#clip0)">
<path fill-rule="evenodd" clip-rule="evenodd" d="M22.44 4.28044C22.68 4.39436 22.8226 4.64671 22.7964 4.91108C22.7702 5.17549 22.5808 5.39487 22.3231 5.45944C19.4462 6.17983 18.9273 8.38806 18.3265 10.945L18.3265 10.9451C18.3009 11.0541 18.2747 11.1689 18.2474 11.2887C17.8554 13.0092 17.2297 15.7556 14.6125 17.074C12.8215 17.9774 10.7839 18.1282 8.87532 17.4985C7.82192 17.1509 6.8785 16.5884 6.0924 15.853C5.74521 15.5282 5.35782 15.0742 5.12915 14.7557C4.90047 14.4372 4.69475 14.099 4.51497 13.7422C2.65225 10.0404 4.14689 5.51065 7.84655 3.64442C10.2182 2.44979 12.8256 1.98464 15.5967 2.26165C17.7729 2.47911 20.0753 3.15833 22.44 4.28044ZM8.41302 4.76825C11.2122 3.35837 14.3392 3.07286 17.7476 3.90904C18.5737 4.11174 19.2173 4.39394 20.0567 5.08169C19.3885 5.52824 18.8432 6.11125 18.4105 6.83909C17.7289 7.98564 17.4098 9.34375 17.1012 10.6571C16.5867 12.8468 16.1007 14.915 14.0459 15.9501C12.5549 16.7022 10.8587 16.8276 9.26961 16.3032C8.20206 15.951 7.27012 15.3338 6.5452 14.5146L5.68817 13.2708C4.0665 10.1816 5.29263 6.34227 8.41302 4.76825Z" fill="#130F26"/>
<path fill-rule="evenodd" clip-rule="evenodd" d="M5.69835 14.5702C4.08627 11.8393 2.75653 5.77725 10.3342 3.37686C14.9712 1.89107 20.0996 3.77173 22.0841 4.89779C21.094 5.04231 18.9464 6.12428 18.2767 9.29615C17.4397 13.261 16.4582 16.2357 13.3476 17.0942C10.2369 17.9527 6.97752 16.406 5.69835 14.5702ZM6.97723 13.6449C7.75775 11.7605 8.84939 9.42949 11.3372 7.4776C12.2924 6.72822 14.8359 5.03421 18.8077 5.32202C19.038 5.33871 19.2486 5.18569 19.2954 4.95955C19.3486 4.70211 19.1699 4.45327 18.9078 4.43242C15.0086 4.12216 12.113 5.87527 10.9243 6.59497C10.8091 6.66468 10.71 6.7247 10.6275 6.7722C7.99637 8.83655 6.95995 11.3054 6.14724 13.3059C6.05422 13.5349 6.16428 13.7961 6.39309 13.8895C6.6219 13.9829 6.88265 13.8732 6.97723 13.6449Z" fill="#130F26"/>
<path d="M4.52312 17.1514C4.81243 16.7671 5.42311 17.0256 5.34865 17.5008L4.79359 21.0433C4.65678 21.9164 3.73587 22.4285 2.92201 22.084C2.10814 21.7395 1.8347 20.7219 2.36629 20.0159L4.52312 17.1514Z" fill="#A8A8A8"/>
</g>
<defs>
<clipPath id="clip0">
<rect width="24" height="24" fill="white"/>
</clipPath>
</defs>
</svg>
